<?xml version="1.0" encoding="utf-8"?>
<!-- Generator: Adobe Illustrator 16.0.0, SVG Export Plug-In . SVG Version: 6.00 Build 0)  -->
<!DOCTYPE svg PUBLIC "-//W3C//DTD SVG 1.1//EN" "http://www.w3.org/Graphics/SVG/1.1/DTD/svg11.dtd">
<svg version="1.1" id="Layer_1" xmlns="http://www.w3.org/2000/svg" xmlns:xlink="http://www.w3.org/1999/xlink" x="0px" y="0px"
	 width="1023.99px" height="250.983px" viewBox="0 0 1023.99 250.983" enable-background="new 0 0 1023.99 250.983"
	 xml:space="preserve">
<polygon fill="#FFFFFF" points="1016.368,196.601 993.402,247.765 834.143,247.765 834.143,0 1023.99,0 1002.117,51.159 
	901.392,51.159 901.392,95.886 982.551,95.886 961.881,147.05 901.392,147.05 901.392,196.601 "/>
<path fill="#FFFFFF" d="M243.761,155.415V0l67.191,40.788l0.06,117.523c0,24.134,13.792,40.225,37.604,40.225
	c23.811,0,39.9-16.091,39.9-40.225l0.085-111.227L454.523,0v155.415c0,57.277-42.15,95.566-105.542,95.566
	C285.913,250.981,243.761,212.692,243.761,155.415"/>
<rect x="471.803" fill="#FFFFFF" width="67.253" height="247.765"/>
<polygon fill="#FFFFFF" points="695.819,247.765 617.626,247.765 539.754,118.736 606.043,0 680.372,0 613.446,111.335 "/>
<polygon fill="#FFFFFF" points="834.143,247.765 755.95,247.765 678.083,118.736 744.367,0 818.694,0 751.769,111.335 "/>
<path fill="#FFFFFF" d="M92.071,0H0v250.983h92.071c80.511,0,134.292-50.196,134.292-125.492C226.363,50.196,172.582,0,92.071,0z
	 M95.329,199.155H68.927V51.828h26.402c36.181,0,60.302,29.335,60.302,73.664S131.51,199.155,95.329,199.155z"/>
</svg>
